<?xml version="1.0" standalone="no"?>
<!DOCTYPE svg PUBLIC "-//W3C//DTD SVG 20010904//EN"
 "http://www.w3.org/TR/2001/REC-SVG-20010904/DTD/svg10.dtd">
<svg version="1.0" xmlns="http://www.w3.org/2000/svg"
 width="415.000000pt" height="415.000000pt" viewBox="0 0 415.000000 415.000000"
 preserveAspectRatio="xMidYMid meet">
<metadata>
Created by potrace 1.11, written by Peter Selinger 2001-2013
</metadata>
<g transform="translate(0.000000,415.000000) scale(0.100000,-0.100000)"
fill="#000000" stroke="none">
<path d="M120 2549 c0 -6 4 -18 10 -28 5 -10 27 -96 50 -192 22 -96 45 -190
50 -211 9 -32 28 -49 168 -145 158 -110 228 -161 907 -663 329 -243 751 -558
844 -629 18 -14 46 -35 61 -46 15 -11 69 -53 120 -92 52 -41 102 -73 115 -73
30 0 190 123 169 130 -19 7 1 26 101 95 39 26 80 57 92 68 13 11 25 18 29 15
3 -3 -16 -22 -42 -42 -26 -20 -44 -36 -40 -36 9 0 176 130 176 137 0 6 -22
-10 -57 -41 -13 -11 -25 -17 -29 -14 -3 3 39 41 93 84 54 43 160 129 236 191
79 65 142 111 149 107 7 -4 8 -3 4 4 -7 11 6 17 27 13 5 -1 6 3 3 7 -6 10 45
56 209 191 55 45 109 90 120 99 45 37 55 44 55 39 0 -3 -53 -49 -117 -103 -65
-55 -127 -107 -138 -118 -40 -37 37 14 95 63 30 26 100 82 155 126 55 43 102
81 105 85 3 3 40 34 82 68 105 87 107 95 33 150 -49 35 -57 39 -49 18 3 -8
-39 -48 -113 -107 -65 -52 -230 -185 -368 -295 -743 -595 -1021 -814 -1031
-810 -18 7 -354 255 -597 441 -344 263 -394 300 -672 492 -201 139 -699 500
-812 590 -10 7 -29 81 -52 199 -21 110 -42 189 -49 192 -7 2 -12 10 -12 17 0
8 -9 19 -19 25 -26 13 -61 13 -61 -1z m3730 -943 c0 -2 -23 -24 -52 -47 -28
-24 -49 -38 -47 -32 2 6 24 27 49 47 47 37 50 38 50 32z"/>
<path d="M360 2457 c0 -3 12 -12 26 -22 15 -9 23 -12 20 -6 -7 11 -46 35 -46
28z"/>
<path d="M420 2416 c0 -2 24 -19 53 -36 28 -18 76 -48 105 -67 28 -18 52 -30
52 -26 0 5 -31 26 -68 47 -37 22 -81 50 -99 63 -30 22 -43 28 -43 19z"/>
<path d="M920 2280 c-8 -5 -10 -10 -5 -10 6 0 17 5 25 10 8 5 11 10 5 10 -5 0
-17 -5 -25 -10z"/>
<path d="M682 2250 c62 -39 76 -39 18 0 -25 16 -49 30 -55 30 -5 0 11 -14 37
-30z"/>
<path d="M854 2234 c-18 -14 -18 -15 4 -4 12 6 22 13 22 15 0 8 -5 6 -26 -11z"/>
<path d="M2710 670 c-9 -6 -10 -10 -3 -10 6 0 15 5 18 10 8 12 4 12 -15 0z"/>
</g>
</svg>
